<?xml version="1.0" standalone="no"?><!DOCTYPE svg PUBLIC "-//W3C//DTD SVG 1.1//EN" "http://www.w3.org/Graphics/SVG/1.1/DTD/svg11.dtd"><svg t="1596594983465" class="icon" viewBox="0 0 1024 1024" version="1.1" xmlns="http://www.w3.org/2000/svg" p-id="14278" xmlns:xlink="http://www.w3.org/1999/xlink" width="14" height="14"><defs><style type="text/css"></style></defs><path d="M1023.1 819c-1-13.5-3.5-14.7-16.9-13.6-14.7 1.2-27.2-6.2-32.3-19-5.2-13.1-1.4-26.7 10-36.1 7.7-6.3 8.7-11.5 1.7-18.9-10.6-11.2-21.6-22-33.1-32.2-8.9-7.9-13.1-6.9-20.6 2.6-9.2 11.6-23.9 15-37.3 8.8-12.5-5.9-18.4-16.6-17.5-31.8 0.7-10.4-2.4-14.1-12.8-14.9-8.1-0.6-16.2-1.1-23.9-1.6-8 0.9-15.5 1.5-22.9 2.5-10.4 1.4-12.6 4.4-11.7 15 1.4 16.1-5.3 28.2-18.7 33.7-13 5.4-26.4 1.5-36.5-10.5-6-7.1-11.3-8.1-17.9-1.8-11.2 10.5-22.2 21.3-32.4 32.9-8.7 9.8-7.7 13.2 2.3 21.5 9.6 8 13.7 18.2 11.1 30.6-2.7 12.6-10.7 20.6-23.1 23.6-4.6 1.1-9.6 0.4-14.4 0.3-6.5-0.1-10.7 2.9-11.5 9.3-2.4 17.8-2.5 35.6 0.8 53.3 1.3 7 5 9.7 12.1 9.3 3.7-0.2 7.5-1.1 11.1-0.7 13 1.3 23.3 10 26.8 22.2 3.5 12.1-0.7 24.5-11.1 32.9-8.6 6.9-9.6 11.7-2.1 19.7 10.4 11 21.1 21.8 32.5 31.8 9.7 8.5 13.4 7.5 21.4-2.8 11.1-14.2 30.9-16.1 44.5-4.4 9.1 7.8 11.6 17.7 10.4 29.1-0.9 8.5 2.2 13.3 9.7 13.5 16.7 0.3 33.4 0.4 50-0.6 10.8-0.7 13-4.5 11.8-15.4-1.8-15.8 4.9-28.3 18.2-33.9 13.4-5.7 27-1.8 37 10.5 6.1 7.5 11.4 8.6 18.3 2.1 11.4-10.9 22.6-22.2 33.1-34 7.6-8.6 6.5-13.2-2.6-20.1-7.7-5.8-12-13.4-12.5-23-1.1-19.5 14.8-34.3 34.5-32.4 10.1 1 15-1.9 15.3-10.7 0.2-15.6 0.4-31.2-0.8-46.8zM843.9 921.7c-43.4-0.5-78.2-35.8-77.6-78.7 0.6-42.4 35.5-77.2 77.3-77 43.2 0.2 78.8 35.7 78.4 78.2-0.4 43-35.7 78-78.1 77.5z m0 0" p-id="14279" fill="#BFCBD9"></path><path d="M128.3 297.5c13.1-2.5 33.7 7.2 50.4 17 7.9 7.3 17.4 13.5 27.9 18.5h0.1c16.5 7.8 35.8 12.5 56.5 12.9-13.7 13.2-24.5 27.4-30.2 42.3-28 74.2-15 129.9-15 129.9h37S243 410 310.6 405.3c33.6-2.3 64.9 3 92.5 4.9 5.3 5.8 11.3 11.2 18 16.2-12.2 54.3-3.6 91.7-3.6 91.7h37s-4.1-38.5 6.8-70.5c18.6 6.6 39.2 10.4 61 10.4 10 0 19.7-0.8 29.2-2.3 5.3 1.4 10.8 2.6 16.4 3.4 14.7 43.2 65.7 75.1 126.5 75.1 44.5 0 83.8-17.1 107.4-43.2 61.1-7.5 107.9-48.1 107.9-97.2 0-3.1-0.2-6.1-0.6-9.1 33.1-13.3 55.7-40 55.7-70.7 0-30.4-22.1-56.9-54.7-70.3 8.8-10.2 14-22.4 14-35.6 0-28.1-23.4-51.7-55.9-60.6 2.6-7.4 4.1-15.1 4.1-23.1 0-49.3-52-89.3-116.2-89.3-9.2 0-18.1 0.9-26.7 2.5C715.9 15.4 687 0 653.2 0c-35 0-65 16.5-77.6 39.9-14.6-9-33.1-14.4-53.3-14.4-47.1 0-85.3 29.4-85.3 65.6 0 1.7 0.2 3.4 0.3 5C419.2 84.2 395.7 77 370 77c-44.1 0-81.7 21.2-96.7 51.1-5.9-1.2-11.9-2.1-18.3-2.1-38.1 0-68.9 23.7-68.9 53 0 3.1 0.5 6.1 1.2 9-23.2 8.4-55.4 23.4-81.4 48.4-27.6 26.5-57 87.1-54.9 96.7h31.7s20.3-30.8 45.6-35.6z" p-id="14280" fill="#BFCBD9"></path><path d="M620 843.1c0-36 9.3-69.5 24.4-99.6l-64.3 47.4H539l-31.8-259.1h-138l-31.8 259.1h-3.7l-31.8-259.1h-138l-31.8 259.1h-3.2l-17.7-430.2H20.9L3.2 790.9H0V1024h713.2C657 983.4 620 917.7 620 843.1z" p-id="14281" fill="#BFCBD9"></path></svg>