<?xml version="1.0" standalone="no"?><!DOCTYPE svg PUBLIC "-//W3C//DTD SVG 1.1//EN" "http://www.w3.org/Graphics/SVG/1.1/DTD/svg11.dtd"><svg t="1596593921784" class="icon" viewBox="0 0 1024 1024" version="1.1" xmlns="http://www.w3.org/2000/svg" p-id="9294" width="14" height="14" xmlns:xlink="http://www.w3.org/1999/xlink"><defs><style type="text/css"></style></defs><path d="M541.26157 1014.083966a48.876449 48.876449 0 0 1-58.856457 0S127.98688 672.908437 127.98688 428.206317a53.290684 53.290684 0 0 1 1.279488-10.043982A598.160736 598.160736 0 0 1 127.98688 384.255898 379.496202 379.496202 0 0 1 511.833341 0.02559a391.07557 391.07557 0 0 1 383.846462 397.600959c0 6.973211-0.639744 13.690524-1.279488 20.535786a53.290684 53.290684 0 0 1 1.279488 10.043982c0 244.702119-324.990004 562.910836-354.418233 585.877649zM511.833341 64.383846a321.023591 321.023591 0 0 0-319.872051 319.872052c3.198721 177.273091 151.619352 383.846461 319.872051 383.846461s319.872051-206.573371 319.872052-383.846461a325.181927 325.181927 0 0 0-319.872052-319.872052z m0 175.929629a159.936026 159.936026 0 1 1-153.538584 159.936025A156.609356 156.609356 0 0 1 511.833341 240.313475z" p-id="9295" fill="#BFCBD9"></path></svg>