<?xml version="1.0" standalone="no"?><!DOCTYPE svg PUBLIC "-//W3C//DTD SVG 1.1//EN" "http://www.w3.org/Graphics/SVG/1.1/DTD/svg11.dtd"><svg t="1597722702439" class="icon" viewBox="0 0 1024 1024" version="1.1" xmlns="http://www.w3.org/2000/svg" p-id="6340" xmlns:xlink="http://www.w3.org/1999/xlink" width="14" height="14"><defs><style type="text/css"></style></defs><path d="M586.1 183.8c-3.4-38.5-35.4-68.9-74.8-68.9s-71.4 30.4-74.8 68.9c-159 33-284.2 168.5-298 335.6-1 11.6 3 23.2 10.9 31.8 7.7 8.4 18.7 13.2 30.1 13.2h216.3v-0.2c7.8-0.2 14.1-6.5 14.1-14.3 0-7.9-6.4-14.4-14.4-14.4-0.2 0-0.4 0.1-0.6 0.1H179.5c-3.5 0-6.6-1.4-9-4-2.5-2.7-3.7-6.2-3.4-9.9 14.7-177.8 165.8-317 344.1-317s329.5 139.3 344.1 317c0.3 3.7-0.9 7.2-3.4 9.9-2.4 2.6-5.6 4-9 4l-332.4-0.1c-7.9 0-13.7 6.4-13.7 14.4v243.4c0 0.6 0.3 1 0.3 1.6 0 0.3-0.2 0.6-0.2 1 0 63.5 51.6 115.1 115.1 115.1s115.1-51.6 115.1-115.1c0-7.9-6.4-14.4-14.4-14.4-7.9 0-14.4 6.4-14.4 14.4 0 47.6-38.7 86.4-86.3 86.4s-86.3-38.7-86.3-86.4c0-0.6-0.3-1-0.3-1.6 0-0.3 0.2-0.6 0.2-1V564.4H843c11.4 0 22.4-4.8 30.1-13.2 7.9-8.6 11.8-20.1 10.9-31.8-13.7-167.1-138.8-302.6-297.9-335.6zM466.9 176c6.1-18.8 23.7-32.4 44.5-32.4s38.4 13.6 44.5 32.4h-89z" fill="#BFCBD9" p-id="6341"></path></svg>